<?xml version="1.0" standalone="no"?>
<!DOCTYPE svg PUBLIC "-//W3C//DTD SVG 20010904//EN"
 "http://www.w3.org/TR/2001/REC-SVG-20010904/DTD/svg10.dtd">
<svg version="1.0" xmlns="http://www.w3.org/2000/svg"
 width="295.000000pt" height="295.000000pt" viewBox="0 0 295.000000 295.000000"
 preserveAspectRatio="xMidYMid meet">
<metadata>
Created by potrace 1.11, written by Peter Selinger 2001-2013
</metadata>
<g transform="translate(0.000000,295.000000) scale(0.100000,-0.100000)"
fill="#000000" stroke="none">
<path d="M1010 2942 c0 -24 -85 -102 -170 -157 -137 -89 -198 -166 -226 -284
-16 -66 -11 -187 10 -256 8 -27 14 -50 12 -52 -2 -2 -63 -5 -137 -7 -117 -3
-141 -7 -189 -29 -62 -28 -92 -53 -117 -100 -17 -30 -18 -92 -18 -947 0 -1022
-5 -947 73 -1007 90 -69 48 -66 1143 -66 l987 0 44 26 c29 17 53 41 70 74 19
35 33 49 50 50 48 4 107 26 141 54 71 59 67 3 67 938 0 906 0 892 -53 949 -44
47 -74 55 -215 58 -74 1 -136 5 -139 8 -3 3 -12 33 -20 68 -17 73 -76 205
-124 275 -110 161 -289 289 -479 343 -136 39 -367 35 -481 -9 -32 -12 -43 -45
-20 -64 18 -16 27 -16 123 6 173 38 411 -4 556 -99 l23 -15 -25 -20 c-21 -16
-41 -19 -143 -19 l-118 0 -41 -54 -42 -53 -92 4 -92 4 -38 -40 c-85 -89 -133
-217 -111 -292 6 -21 17 -41 23 -45 12 -8 81 -11 260 -15 l88 -1 92 -109 c51
-60 98 -111 105 -113 7 -3 68 -6 135 -7 127 -1 146 -6 185 -45 l23 -23 -263 2
c-144 1 -245 3 -224 5 32 3 37 6 32 23 -11 33 -85 188 -93 192 -7 5 -51 10
-209 26 -79 8 -100 7 -156 -10 -36 -11 -67 -25 -69 -32 -3 -6 7 -53 21 -104
20 -74 29 -93 46 -96 11 -2 -36 -4 -105 -3 -69 0 -112 2 -96 5 26 5 17 12 -94
68 l-122 63 -39 -30 -38 -31 -3 48 c-2 26 -1 71 0 99 4 52 4 52 50 69 312 116
443 333 366 605 -19 64 -63 162 -78 172 -15 10 -46 10 -46 0z m52 -174 c33
-107 30 -214 -6 -291 -44 -91 -132 -170 -242 -218 l-44 -18 23 42 c13 23 32
63 41 89 17 42 23 49 75 69 69 27 81 36 81 61 0 26 -25 33 -68 20 -20 -6 -38
-10 -40 -7 -2 2 21 46 52 98 31 51 56 96 56 100 0 3 -7 13 -16 21 -11 12 -20
13 -33 6 -17 -9 -92 -123 -107 -162 -9 -25 -16 -22 -37 13 -13 24 -22 30 -40
26 -32 -8 60 74 126 112 29 17 72 48 97 70 25 22 48 40 52 41 4 0 17 -33 30
-72z m967 -155 c115 -112 206 -285 229 -433 10 -62 6 -240 -5 -268 -9 -23 -11
-22 -88 42 -44 36 -84 65 -90 65 -5 -1 -65 -1 -131 0 l-122 1 -73 88 c-127
151 -112 142 -236 143 -232 3 -218 1 -219 29 0 30 45 126 80 167 25 30 26 30
122 28 l96 -3 41 54 42 54 106 -2 c104 -2 107 -2 155 30 27 17 53 32 57 32 4
0 21 -12 36 -27z m-1291 -37 c1 -13 11 -45 22 -70 11 -26 20 -56 20 -67 0 -24
-23 -80 -57 -138 -21 -37 -27 -41 -35 -27 -17 30 -19 177 -3 231 12 41 39 95
48 95 2 0 4 -11 5 -24z m-111 -474 c6 -4 10 -27 10 -52 -1 -74 13 -168 26
-174 7 -3 -58 -4 -143 -2 -163 3 -207 13 -243 54 -28 31 -26 86 4 118 25 27
51 41 104 54 37 10 227 11 242 2z m1980 -7 c61 -26 63 -40 63 -387 l0 -313
-338 0 c-366 0 -374 -1 -409 -54 -15 -22 -17 -53 -17 -212 -1 -287 -27 -270
423 -270 l341 0 0 -257 c0 -217 -2 -261 -16 -280 -19 -27 -65 -52 -97 -52
l-24 0 0 237 c0 218 -1 237 -18 250 -16 11 -22 11 -39 -1 -20 -13 -21 -22 -21
-267 0 -242 -1 -256 -23 -300 -12 -25 -34 -52 -49 -60 -22 -12 -181 -14 -1007
-13 l-981 0 -53 23 c-101 45 -92 -41 -92 887 0 448 2 814 4 814 2 0 25 -10 52
-22 l49 -22 1015 -1 c768 -1 1020 -4 1037 -13 37 -20 45 -50 47 -171 2 -123 6
-141 35 -141 37 0 45 26 44 150 -1 105 -4 124 -24 161 -36 63 -67 82 -151 89
-40 4 -62 8 -48 9 22 1 26 6 28 34 2 17 4 41 7 52 2 11 4 48 4 82 l1 62 112 0
c70 -1 125 -6 145 -14z m-1222 -60 c69 -6 108 -10 137 -14 8 -1 36 -53 61
-113 l15 -36 -181 1 c-100 0 -172 3 -159 5 26 4 26 7 9 58 -29 82 -29 94 -5
103 13 5 28 7 33 5 6 -1 46 -6 90 -9z m-516 -129 c19 -11 53 -23 75 -26 23 -4
-29 -7 -114 -6 -85 0 -139 1 -119 3 24 3 46 14 64 33 29 30 36 30 94 -4z
m1389 -33 c-15 -2 -42 -2 -60 0 -18 2 -6 4 27 4 33 0 48 -2 33 -4z m398 -564
c11 -9 14 -47 14 -178 0 -91 -4 -172 -9 -180 -8 -12 -63 -15 -327 -15 -222 -1
-322 2 -333 10 -12 10 -15 40 -16 179 -1 124 2 170 11 180 18 18 639 22 660 4z"/>
<path d="M1095 1679 c-64 -7 -80 -15 -93 -44 -7 -15 -11 -127 -12 -306 0 -155
-2 -285 -5 -288 -3 -6 -27 -6 -67 -2 -5 1 -8 143 -8 316 0 275 -2 315 -15 315
-13 0 -15 -41 -13 -332 l3 -333 63 0 c35 0 66 4 69 9 3 4 6 69 6 142 l0 134
26 6 c41 8 54 18 67 50 10 23 9 36 -1 61 -11 27 -21 34 -53 39 -40 6 -40 7
-39 50 l1 44 98 0 c54 0 100 0 103 0 21 -1 64 34 69 56 18 69 -58 100 -199 83z
m142 -35 c29 -8 38 -34 18 -53 -12 -13 -39 -16 -123 -16 l-107 0 3 25 c1 14
10 31 19 38 17 12 149 17 190 6z m-166 -234 c21 -12 25 -50 7 -68 -7 -7 -22
-12 -35 -12 -21 0 -23 4 -21 45 1 47 11 55 49 35z"/>
<path d="M531 1661 c-24 -24 -23 -8 -23 -363 l0 -256 -26 -4 c-60 -8 -57 -25
-56 312 1 286 -3 337 -24 315 -11 -11 -9 -646 3 -653 5 -4 38 -7 72 -7 l63 0
0 158 0 157 40 0 c22 0 41 0 43 1 60 12 96 24 119 40 80 58 89 215 16 286 -27
26 -37 28 -118 31 -79 4 -90 2 -109 -17z m183 -21 c36 -13 60 -65 60 -130 0
-104 -46 -146 -168 -155 l-66 -5 0 138 c0 94 4 142 12 150 14 14 126 16 162 2z"/>
<path d="M2112 1228 c-19 -19 -16 -183 4 -202 18 -19 20 -19 45 -6 17 9 19 22
19 103 0 94 -8 117 -40 117 -9 0 -21 -5 -28 -12z"/>
</g>
</svg>
